<?xml version="1.0" encoding="UTF-8"?>
<svg id="Layer_1" data-name="Layer 1" xmlns="http://www.w3.org/2000/svg" viewBox="0 0 240 240">
  <defs>
    <style>
      .cls-1 {
        fill: #fff;
      }
    </style>
  </defs>
  <g>
    <g>
      <path d="M94.17,81.82c9.61-1.32,11.23,12.19,1.55,14.49-11.15,2.65-12.26-13.02-1.55-14.49Z"/>
      <path d="M75.95,88.54c8.93-1.03,10.77,11.45.72,13.91-10.97,2.68-12.28-12.58-.72-13.91Z"/>
    </g>
    <path d="M196.6,109.33l5.54,4.42.2.47c-1.08,9.16-7.42,18.88-17.35,19.57-17.1,1.18-12.98-21.78-16.07-32.38-.61-2.09-2.73-6.9-5.26-3.58s-1.14,8.4-.85,12.1c.7,9.07,1.32,18.15,2.16,27.21l-17.5,3.36-2.19-31.74c-1.21-8.15-6.58-5.7-7.56.73.54,10.35,2.05,20.76,2.33,31.13.01.4.1,1.22-.24,1.46l-17.27,3.23c-.19-.19.33-3.29-.36-3.84-5.37,6.65-18.99,11.69-24.22,2.4-2.57,5.93-7.87,9.83-14.38,10.32-12.14.91-14.91-7.58-16.19-17.63-.04-.28.1-.48-.35-.35-2.22.66-4.56,2.34-7.07,2.4.69,8.52-1.78,15.58-8.9,20.47-10,6.85-23.51,7.81-34.95,4.43l-4.56-51.36,17.6-8.07,3.12,21.09c8.02-7.84,22.25-9.3,25.91,3.61,3.2-.77,6.35-1.87,9.23-3.47.73-3.26,1.46-6.41,3.15-9.32,4.31-7.44,13.2-10.38,21.29-7.6l-.49-4.2.25-.48,17.51-4.19c.44,5.16,1.18,10.31,1.68,15.47s.38,11.07,1.26,15.76c1.35,7.19,8.2,2.46,9.54-1.86-.85-10.84-1.82-21.67-3.1-32.46l17.23-6.5c.29,1.6.29,3.28.51,4.89.04.3.1,1.31.45,1.35,2-4.67,6.23-8.25,11.26-9.24,3.8-.75,6.73.04,9.37,2.89.32.35,1.09,1.89,1.43,1.56,2.21-7.59,11.96-15.08,19.96-11.93,9.57,3.76,7.87,23.01,8.84,31.2.41,3.46,1.18,7.12,5.57,5.15,2.46-1.1,3.43-3.9,3.51-6.44ZM90.1,116.57c-.86.07-1.96.68-2.59,1.27-4.12,3.77-3.74,13.8-2.16,18.71.3.94,1.05,2.89,1.98,3.29,2.52,1.09,6.33-1.62,6.66-4.25.25-2-.31-5.96-.49-8.16-.26-3.18-.75-6.36-1.01-9.54-.48-.8-1.44-1.4-2.39-1.32ZM42.89,138.85c-3.45-.6-6.8-1.82-9.8-3.63.29,4.28.76,8.56,1.19,12.83.25,2.45-.62,5.42,3,5.15,5.84-.43,6.31-10.04,5.61-14.35Z"/>
    <g>
      <polygon points="214.34 31.89 219.88 97.92 206.92 101.9 195.91 41.15 214.34 31.89"/>
      <path d="M217.42,106.52c10.44-.47,12.52,15.09,2.27,18.82-16.41,5.97-18.96-18.08-2.27-18.82Z"/>
    </g>
  </g>
  <path class="cls-1" d="M90.1,116.57c.95-.08,1.92.52,2.39,1.32.26,3.18.75,6.36,1.01,9.54.18,2.2.73,6.16.49,8.16-.33,2.63-4.14,5.34-6.66,4.25-.93-.4-1.68-2.35-1.98-3.29-1.58-4.91-1.96-14.94,2.16-18.71.63-.58,1.73-1.19,2.59-1.27Z"/>
  <path class="cls-1" d="M42.89,138.85c.7,4.31.23,13.92-5.61,14.35-3.61.27-2.75-2.7-3-5.15-.43-4.27-.91-8.54-1.19-12.83,2.99,1.81,6.34,3.03,9.8,3.63Z"/>
</svg>